<svg xmlns="http://www.w3.org/2000/svg" xmlns:xlink="http://www.w3.org/1999/xlink" width="1920" zoomAndPan="magnify" viewBox="0 0 1440 809.999993" height="1080" preserveAspectRatio="xMidYMid meet" version="1.0"><defs><g/></defs><g fill="#ffde59" fill-opacity="1"><g transform="translate(27.689088, 438.582968)"><g><path d="M 106.640625 -121.59375 C 109.316406 -121.59375 111.441406 -121.625 113.015625 -121.6875 C 114.597656 -121.75 115.84375 -121.929688 116.75 -122.234375 C 117.664062 -122.535156 118.425781 -122.925781 119.03125 -123.40625 C 119.644531 -123.894531 120.316406 -124.503906 121.046875 -125.234375 L 122.5 -82.9375 L 117.765625 -82.9375 C 117.160156 -86.46875 116.335938 -89.566406 115.296875 -92.234375 C 114.265625 -94.910156 112.71875 -97.34375 110.65625 -99.53125 C 107.613281 -102.8125 103.90625 -105.363281 99.53125 -107.1875 C 95.15625 -109.007812 89.929688 -109.921875 83.859375 -109.921875 C 80.328125 -109.921875 77.46875 -109.675781 75.28125 -109.1875 C 73.09375 -108.707031 71.332031 -107.921875 70 -106.828125 C 68.664062 -105.734375 67.660156 -104.332031 66.984375 -102.625 C 66.316406 -100.925781 65.742188 -98.863281 65.265625 -96.4375 L 62.53125 -82.9375 L 73.828125 -82.9375 C 77.710938 -82.9375 80.898438 -83.300781 83.390625 -84.03125 C 85.890625 -84.757812 87.925781 -85.820312 89.5 -87.21875 C 91.082031 -88.625 92.269531 -90.269531 93.0625 -92.15625 C 93.851562 -94.039062 94.550781 -96.078125 95.15625 -98.265625 L 98.8125 -98.265625 L 96.796875 -52.5 L 93.15625 -52.5 L 92.96875 -53.234375 C 92.363281 -55.898438 91.632812 -58.359375 90.78125 -60.609375 C 89.9375 -62.859375 88.753906 -64.769531 87.234375 -66.34375 C 85.710938 -67.925781 83.644531 -69.144531 81.03125 -70 C 78.414062 -70.851562 75.101562 -71.28125 71.09375 -71.28125 L 59.96875 -71.28125 L 53.234375 -39.1875 C 53.109375 -38.820312 52.894531 -37.757812 52.59375 -36 C 52.289062 -34.238281 51.957031 -32.320312 51.59375 -30.25 C 51.226562 -28.1875 50.890625 -26.210938 50.578125 -24.328125 C 50.273438 -22.453125 50.125 -21.207031 50.125 -20.59375 C 50.125 -17.800781 51.335938 -15.675781 53.765625 -14.21875 C 56.203125 -12.757812 59.546875 -12.03125 63.796875 -12.03125 C 68.898438 -12.03125 74.367188 -12.847656 80.203125 -14.484375 C 86.035156 -16.128906 92.296875 -19.257812 98.984375 -23.875 C 102.878906 -26.550781 106.675781 -29.800781 110.375 -33.625 C 114.082031 -37.457031 117.703125 -42.109375 121.234375 -47.578125 L 125.421875 -45.578125 L 104.453125 2 C 103.972656 1.632812 103.550781 1.332031 103.1875 1.09375 C 102.820312 0.851562 102.179688 0.640625 101.265625 0.453125 C 100.359375 0.273438 98.992188 0.15625 97.171875 0.09375 C 95.347656 0.03125 92.796875 0 89.515625 0 L -2.734375 0 L -1.828125 -4.375 C 0.722656 -4.738281 2.757812 -5.253906 4.28125 -5.921875 C 5.800781 -6.585938 7.078125 -7.832031 8.109375 -9.65625 C 9.140625 -11.476562 10.082031 -14.03125 10.9375 -17.3125 C 11.789062 -20.59375 12.765625 -24.96875 13.859375 -30.4375 L 28.625 -100.8125 C 29.226562 -103.851562 29.617188 -105.890625 29.796875 -106.921875 C 29.984375 -107.953125 30.078125 -108.710938 30.078125 -109.203125 C 30.078125 -111.265625 29.4375 -113.023438 28.15625 -114.484375 C 26.882812 -115.941406 24.609375 -116.789062 21.328125 -117.03125 L 22.234375 -121.59375 Z M 106.640625 -121.59375 "/></g></g></g><g fill="#ffde59" fill-opacity="1"><g transform="translate(154.02278, 438.582968)"><g><path d="M 47.390625 -43.75 C 46.660156 -40.46875 46.144531 -37.820312 45.84375 -35.8125 C 45.539062 -33.8125 45.296875 -32.234375 45.109375 -31.078125 C 44.929688 -29.921875 44.84375 -29.097656 44.84375 -28.609375 C 44.84375 -28.128906 44.84375 -27.769531 44.84375 -27.53125 C 44.84375 -24.25 45.785156 -21.753906 47.671875 -20.046875 C 49.554688 -18.347656 51.710938 -17.5 54.140625 -17.5 C 54.378906 -17.5 55.046875 -17.554688 56.140625 -17.671875 C 57.234375 -17.796875 58.875 -18.222656 61.0625 -18.953125 L 62.703125 -14.953125 L 30.984375 2.921875 C 15.921875 0.734375 8.390625 -6.132812 8.390625 -17.6875 C 8.390625 -18.65625 8.507812 -19.867188 8.75 -21.328125 C 8.988281 -22.785156 9.472656 -25.273438 10.203125 -28.796875 L 25.15625 -100.078125 C 26.007812 -103.609375 26.4375 -106.160156 26.4375 -107.734375 C 26.4375 -110.046875 25.734375 -111.988281 24.328125 -113.5625 C 22.929688 -115.144531 20.59375 -116.0625 17.3125 -116.3125 L 17.5 -120.3125 L 65.078125 -126.328125 Z M 47.390625 -43.75 "/></g></g></g><g fill="#ffde59" fill-opacity="1"><g transform="translate(217.645385, 438.582968)"><g><path d="M 51.40625 -92.96875 C 53.101562 -90.90625 54.4375 -88.6875 55.40625 -86.3125 C 56.382812 -83.945312 56.875 -81.304688 56.875 -78.390625 C 56.875 -75.953125 56.507812 -72.695312 55.78125 -68.625 C 55.050781 -64.5625 54.203125 -60.398438 53.234375 -56.140625 L 48.125 -31.359375 C 47.757812 -29.648438 47.515625 -28.3125 47.390625 -27.34375 C 47.273438 -26.375 47.21875 -25.460938 47.21875 -24.609375 C 47.21875 -21.816406 48.128906 -19.597656 49.953125 -17.953125 C 51.773438 -16.316406 54.019531 -15.5 56.6875 -15.5 C 57.414062 -15.5 58.207031 -15.554688 59.0625 -15.671875 C 59.914062 -15.796875 61.070312 -16.101562 62.53125 -16.59375 L 63.984375 -12.578125 L 30.984375 2.921875 C 24.785156 1.941406 19.832031 -0.09375 16.125 -3.1875 C 12.425781 -6.289062 10.578125 -10.695312 10.578125 -16.40625 C 10.578125 -19.195312 10.816406 -21.957031 11.296875 -24.6875 C 11.785156 -27.425781 12.332031 -30.015625 12.9375 -32.453125 L 19.5 -63.625 C 20.351562 -67.507812 20.898438 -70.117188 21.140625 -71.453125 C 21.390625 -72.796875 21.515625 -73.953125 21.515625 -74.921875 C 21.515625 -78.078125 20.507812 -80.140625 18.5 -81.109375 C 16.5 -82.085938 14.222656 -82.578125 11.671875 -82.578125 L 11.484375 -87.140625 Z M 28.078125 -118.5 C 28.078125 -123.96875 30.140625 -128.523438 34.265625 -132.171875 C 38.398438 -135.816406 43.8125 -137.640625 50.5 -137.640625 C 55.351562 -137.640625 59.269531 -136.269531 62.25 -133.53125 C 65.226562 -130.800781 66.71875 -127.367188 66.71875 -123.234375 C 66.71875 -120.316406 66.109375 -117.671875 64.890625 -115.296875 C 63.679688 -112.929688 62.070312 -110.894531 60.0625 -109.1875 C 58.0625 -107.488281 55.722656 -106.179688 53.046875 -105.265625 C 50.367188 -104.359375 47.632812 -103.90625 44.84375 -103.90625 C 43.019531 -103.90625 41.101562 -104.148438 39.09375 -104.640625 C 37.09375 -105.128906 35.269531 -105.921875 33.625 -107.015625 C 31.988281 -108.109375 30.65625 -109.59375 29.625 -111.46875 C 28.59375 -113.351562 28.078125 -115.695312 28.078125 -118.5 Z M 28.078125 -118.5 "/></g></g></g><g fill="#ffde59" fill-opacity="1"><g transform="translate(284.549374, 438.582968)"><g><path d="M 51.40625 -93.515625 C 52.5 -92.421875 53.285156 -91.113281 53.765625 -89.59375 C 54.253906 -88.070312 54.585938 -86.429688 54.765625 -84.671875 C 54.953125 -82.910156 54.984375 -81.085938 54.859375 -79.203125 C 54.742188 -77.316406 54.625 -75.585938 54.5 -74.015625 C 61.789062 -80.578125 69.203125 -85.46875 76.734375 -88.6875 C 84.273438 -91.90625 91.691406 -93.515625 98.984375 -93.515625 C 104.941406 -93.515625 109.617188 -92.054688 113.015625 -89.140625 C 116.421875 -86.222656 118.125 -82.273438 118.125 -77.296875 C 118.125 -74.378906 117.789062 -71.125 117.125 -67.53125 C 116.457031 -63.945312 115.878906 -61.003906 115.390625 -58.703125 L 111.203125 -39.015625 C 110.597656 -36.097656 110.140625 -33.816406 109.828125 -32.171875 C 109.523438 -30.535156 109.28125 -29.257812 109.09375 -28.34375 C 108.914062 -27.4375 108.828125 -26.800781 108.828125 -26.4375 C 108.828125 -26.070312 108.828125 -25.765625 108.828125 -25.515625 C 108.828125 -23.210938 109.585938 -21.085938 111.109375 -19.140625 C 112.628906 -17.191406 114.910156 -16.21875 117.953125 -16.21875 C 118.554688 -16.21875 119.28125 -16.28125 120.125 -16.40625 C 120.976562 -16.53125 122.257812 -16.773438 123.96875 -17.140625 L 125.609375 -13.125 L 92.25 2.375 C 89.445312 1.882812 86.859375 1.148438 84.484375 0.171875 C 82.117188 -0.796875 80.023438 -2.066406 78.203125 -3.640625 C 76.378906 -5.222656 74.953125 -7.195312 73.921875 -9.5625 C 72.890625 -11.9375 72.375 -14.765625 72.375 -18.046875 C 72.375 -20.359375 72.613281 -22.757812 73.09375 -25.25 C 73.582031 -27.738281 74.375 -31.472656 75.46875 -36.453125 L 80.203125 -58.328125 C 80.816406 -61.367188 81.242188 -63.675781 81.484375 -65.25 C 81.722656 -66.832031 81.84375 -67.75 81.84375 -68 C 81.84375 -72.007812 79.414062 -74.015625 74.5625 -74.015625 C 71.15625 -74.015625 68.144531 -73.191406 65.53125 -71.546875 C 62.914062 -69.910156 60.632812 -67.816406 58.6875 -65.265625 C 56.75 -62.710938 55.082031 -59.820312 53.6875 -56.59375 C 52.289062 -53.375 51.101562 -50.15625 50.125 -46.9375 C 49.15625 -43.71875 48.335938 -40.648438 47.671875 -37.734375 C 47.003906 -34.816406 46.488281 -32.382812 46.125 -30.4375 L 39.734375 0 L 5.46875 0 L 18.59375 -61.796875 C 19.082031 -64.222656 19.507812 -66.164062 19.875 -67.625 C 20.238281 -69.082031 20.476562 -70.265625 20.59375 -71.171875 C 20.71875 -72.085938 20.8125 -72.816406 20.875 -73.359375 C 20.9375 -73.910156 20.96875 -74.492188 20.96875 -75.109375 C 20.96875 -78.390625 19.929688 -80.695312 17.859375 -82.03125 C 17.492188 -82.269531 16.828125 -82.601562 15.859375 -83.03125 C 14.890625 -83.457031 13.25 -83.734375 10.9375 -83.859375 L 10.578125 -88.046875 Z M 51.40625 -93.515625 "/></g></g></g><g fill="#ffde59" fill-opacity="1"><g transform="translate(412.888346, 438.582968)"><g><path d="M 68.359375 -79.296875 C 64.710938 -79.054688 61.460938 -77.445312 58.609375 -74.46875 C 55.753906 -71.488281 53.351562 -67.78125 51.40625 -63.34375 C 49.457031 -58.90625 47.96875 -53.984375 46.9375 -48.578125 C 45.90625 -43.171875 45.390625 -37.976562 45.390625 -33 C 45.390625 -28.257812 45.9375 -24.488281 47.03125 -21.6875 C 48.125 -18.894531 49.398438 -16.738281 50.859375 -15.21875 C 52.316406 -13.695312 53.832031 -12.691406 55.40625 -12.203125 C 56.988281 -11.722656 58.269531 -11.484375 59.25 -11.484375 C 63.5 -11.484375 67.171875 -13.15625 70.265625 -16.5 C 73.367188 -19.84375 75.921875 -23.882812 77.921875 -28.625 C 79.929688 -33.363281 81.390625 -38.375 82.296875 -43.65625 C 83.210938 -48.945312 83.671875 -53.597656 83.671875 -57.609375 C 83.671875 -59.429688 83.457031 -61.617188 83.03125 -64.171875 C 82.601562 -66.722656 81.84375 -69.148438 80.75 -71.453125 C 79.65625 -73.765625 78.101562 -75.679688 76.09375 -77.203125 C 74.09375 -78.722656 71.515625 -79.421875 68.359375 -79.296875 Z M 7.296875 -39.5625 C 7.296875 -45.507812 8.539062 -51.671875 11.03125 -58.046875 C 13.519531 -64.429688 17.347656 -70.238281 22.515625 -75.46875 C 27.679688 -80.695312 34.242188 -85.007812 42.203125 -88.40625 C 50.160156 -91.8125 59.609375 -93.515625 70.546875 -93.515625 C 76.984375 -93.515625 83.269531 -92.660156 89.40625 -90.953125 C 95.550781 -89.253906 100.992188 -86.671875 105.734375 -83.203125 C 110.472656 -79.742188 114.300781 -75.34375 117.21875 -70 C 120.132812 -64.65625 121.59375 -58.335938 121.59375 -51.046875 C 121.59375 -45.691406 120.46875 -39.914062 118.21875 -33.71875 C 115.96875 -27.519531 112.320312 -21.75 107.28125 -16.40625 C 102.238281 -11.0625 95.707031 -6.59375 87.6875 -3 C 79.664062 0.582031 69.941406 2.375 58.515625 2.375 C 48.429688 2.375 40.109375 1.066406 33.546875 -1.546875 C 26.984375 -4.160156 21.753906 -7.53125 17.859375 -11.65625 C 13.972656 -15.789062 11.238281 -20.316406 9.65625 -25.234375 C 8.082031 -30.160156 7.296875 -34.9375 7.296875 -39.5625 Z M 7.296875 -39.5625 "/></g></g></g><g fill="#ffde59" fill-opacity="1"><g transform="translate(538.49284, 438.582968)"><g><path d="M 50.5 -93.515625 C 51.707031 -91.328125 52.613281 -88.863281 53.21875 -86.125 C 53.832031 -83.394531 54.140625 -80.691406 54.140625 -78.015625 C 54.140625 -77.648438 54.140625 -77.039062 54.140625 -76.1875 C 54.140625 -75.34375 54.019531 -74.191406 53.78125 -72.734375 C 56.695312 -77.109375 59.851562 -80.660156 63.25 -83.390625 C 66.65625 -86.128906 69.96875 -88.226562 73.1875 -89.6875 C 76.40625 -91.144531 79.289062 -92.144531 81.84375 -92.6875 C 84.394531 -93.238281 86.34375 -93.515625 87.6875 -93.515625 C 88.414062 -93.515625 89.507812 -93.484375 90.96875 -93.421875 C 92.425781 -93.367188 93.882812 -93.21875 95.34375 -92.96875 L 83.671875 -66.171875 C 81.722656 -67.867188 79.925781 -69.171875 78.28125 -70.078125 C 76.644531 -70.992188 74.675781 -71.453125 72.375 -71.453125 C 68.726562 -71.453125 65.265625 -70.445312 61.984375 -68.4375 C 58.703125 -66.4375 56.269531 -63.859375 54.6875 -60.703125 C 52.988281 -57.296875 51.773438 -53.921875 51.046875 -50.578125 C 50.316406 -47.242188 49.769531 -44.785156 49.40625 -43.203125 L 40.28125 0 L 6.015625 0 L 19.140625 -61.609375 C 19.628906 -63.679688 20.113281 -65.898438 20.59375 -68.265625 C 21.082031 -70.640625 21.328125 -72.675781 21.328125 -74.375 C 21.328125 -77.53125 20.566406 -79.773438 19.046875 -81.109375 C 17.523438 -82.453125 15.1875 -83.242188 12.03125 -83.484375 L 11.671875 -88.046875 Z M 50.5 -93.515625 "/></g></g></g><g fill="#ffde59" fill-opacity="1"><g transform="translate(626.361293, 438.582968)"><g><path d="M 24.25 -114.84375 C 24.25 -117.644531 25.21875 -119.957031 27.15625 -121.78125 C 29.101562 -123.601562 31.71875 -124.515625 35 -124.515625 C 37.675781 -124.515625 40.078125 -123.722656 42.203125 -122.140625 C 44.328125 -120.554688 45.390625 -118.125 45.390625 -114.84375 C 45.390625 -113.75 45.328125 -112.503906 45.203125 -111.109375 C 45.085938 -109.710938 44.722656 -107.4375 44.109375 -104.28125 L 39.015625 -76.375 L 31.359375 -76.375 L 25.703125 -104.453125 C 24.972656 -107.859375 24.546875 -110.378906 24.421875 -112.015625 C 24.304688 -113.660156 24.25 -114.601562 24.25 -114.84375 Z M 24.25 -114.84375 "/></g></g></g><g fill="#ffde59" fill-opacity="1"><g transform="translate(678.499034, 438.582968)"><g><path d="M 14.03125 -59.25 C 14.03125 -63.257812 15.0625 -67.296875 17.125 -71.359375 C 19.195312 -75.429688 22.328125 -79.109375 26.515625 -82.390625 C 30.710938 -85.671875 35.941406 -88.34375 42.203125 -90.40625 C 48.460938 -92.476562 55.785156 -93.515625 64.171875 -93.515625 C 71.703125 -93.515625 77.925781 -93.03125 82.84375 -92.0625 C 87.769531 -91.09375 91.085938 -90.609375 92.796875 -90.609375 C 94.492188 -90.609375 95.890625 -90.972656 96.984375 -91.703125 C 98.078125 -92.429688 98.988281 -92.976562 99.71875 -93.34375 L 96.4375 -61.609375 L 92.96875 -61.609375 C 91.632812 -67.328125 89.019531 -72.007812 85.125 -75.65625 C 81.238281 -79.300781 75.285156 -81.125 67.265625 -81.125 C 64.347656 -81.125 61.914062 -80.816406 59.96875 -80.203125 C 58.03125 -79.597656 56.515625 -78.835938 55.421875 -77.921875 C 54.328125 -77.015625 53.535156 -76.101562 53.046875 -75.1875 C 52.554688 -74.28125 52.3125 -73.460938 52.3125 -72.734375 C 52.3125 -71.765625 52.523438 -70.851562 52.953125 -70 C 53.378906 -69.144531 54.410156 -68.203125 56.046875 -67.171875 C 57.691406 -66.140625 60.03125 -65.015625 63.0625 -63.796875 C 66.101562 -62.585938 70.300781 -61.070312 75.65625 -59.25 C 78.6875 -58.269531 81.691406 -57.171875 84.671875 -55.953125 C 87.648438 -54.742188 90.320312 -53.226562 92.6875 -51.40625 C 95.0625 -49.582031 96.976562 -47.363281 98.4375 -44.75 C 99.894531 -42.132812 100.625 -39.003906 100.625 -35.359375 C 100.625 -31.597656 99.679688 -27.5 97.796875 -23.0625 C 95.921875 -18.625 92.820312 -14.519531 88.5 -10.75 C 84.1875 -6.988281 78.566406 -3.859375 71.640625 -1.359375 C 64.710938 1.128906 56.144531 2.375 45.9375 2.375 C 41.070312 2.375 36.847656 2.128906 33.265625 1.640625 C 29.679688 1.148438 26.550781 0.628906 23.875 0.078125 C 21.207031 -0.460938 18.867188 -0.941406 16.859375 -1.359375 C 14.859375 -1.785156 12.945312 -2 11.125 -2 C 9.90625 -2 8.71875 -1.753906 7.5625 -1.265625 C 6.40625 -0.785156 5.160156 0.117188 3.828125 1.453125 L 8.015625 -38.09375 L 12.21875 -38.09375 C 12.332031 -33.351562 13.269531 -29.28125 15.03125 -25.875 C 16.800781 -22.476562 19.082031 -19.65625 21.875 -17.40625 C 24.664062 -15.15625 27.882812 -13.515625 31.53125 -12.484375 C 35.175781 -11.453125 39.003906 -10.9375 43.015625 -10.9375 C 49.828125 -10.9375 54.75 -12.0625 57.78125 -14.3125 C 60.820312 -16.5625 62.34375 -19.019531 62.34375 -21.6875 C 62.34375 -24.238281 61.25 -26.242188 59.0625 -27.703125 C 56.875 -29.160156 53.226562 -30.800781 48.125 -32.625 L 38.09375 -36.28125 C 36.394531 -36.882812 34.175781 -37.671875 31.4375 -38.640625 C 28.707031 -39.617188 26.066406 -40.957031 23.515625 -42.65625 C 20.960938 -44.351562 18.742188 -46.539062 16.859375 -49.21875 C 14.972656 -51.894531 14.03125 -55.238281 14.03125 -59.25 Z M 14.03125 -59.25 "/></g></g></g><g fill="#ffde59" fill-opacity="1"><g transform="translate(784.779748, 438.582968)"><g/></g></g><g fill="#ffde59" fill-opacity="1"><g transform="translate(846.761653, 438.582968)"><g><path d="M 18.234375 -84.03125 C 18.234375 -88.164062 19.203125 -92.632812 21.140625 -97.4375 C 23.085938 -102.238281 26.28125 -106.703125 30.71875 -110.828125 C 35.15625 -114.960938 40.925781 -118.394531 48.03125 -121.125 C 55.144531 -123.863281 63.863281 -125.234375 74.1875 -125.234375 C 76.738281 -125.234375 79.015625 -125.171875 81.015625 -125.046875 C 83.023438 -124.929688 85.0625 -124.722656 87.125 -124.421875 C 89.195312 -124.117188 91.445312 -123.691406 93.875 -123.140625 C 96.3125 -122.597656 99.234375 -121.960938 102.640625 -121.234375 C 105.191406 -120.617188 107.101562 -120.25 108.375 -120.125 C 109.65625 -120.007812 110.535156 -119.953125 111.015625 -119.953125 C 114.421875 -119.953125 117.582031 -121.046875 120.5 -123.234375 L 114.671875 -86.21875 L 110.46875 -86.765625 C 109.863281 -89.691406 109.226562 -92.25 108.5625 -94.4375 C 107.894531 -96.625 106.769531 -98.628906 105.1875 -100.453125 C 102.03125 -104.097656 98.050781 -106.769531 93.25 -108.46875 C 88.445312 -110.164062 83.675781 -111.015625 78.9375 -111.015625 C 72.613281 -111.015625 67.6875 -109.617188 64.15625 -106.828125 C 60.632812 -104.035156 58.875 -100.753906 58.875 -96.984375 C 58.875 -95.160156 59.269531 -93.609375 60.0625 -92.328125 C 60.851562 -91.054688 62.128906 -89.875 63.890625 -88.78125 C 65.648438 -87.6875 67.867188 -86.5625 70.546875 -85.40625 C 73.222656 -84.25 76.441406 -82.941406 80.203125 -81.484375 C 83.972656 -80.023438 87.863281 -78.472656 91.875 -76.828125 C 95.882812 -75.191406 99.472656 -73.707031 102.640625 -72.375 C 108.222656 -69.9375 112.835938 -66.59375 116.484375 -62.34375 C 120.128906 -58.09375 121.953125 -52.5625 121.953125 -45.75 C 121.953125 -38.457031 120.160156 -31.773438 116.578125 -25.703125 C 112.992188 -19.628906 108.132812 -14.429688 102 -10.109375 C 95.863281 -5.796875 88.660156 -2.425781 80.390625 0 C 72.128906 2.425781 63.257812 3.640625 53.78125 3.640625 C 50.976562 3.640625 48.546875 3.578125 46.484375 3.453125 C 44.421875 3.335938 42.140625 3.035156 39.640625 2.546875 C 37.148438 2.066406 34.265625 1.429688 30.984375 0.640625 C 27.703125 -0.148438 23.507812 -1.210938 18.40625 -2.546875 C 17.195312 -2.796875 15.984375 -3.070312 14.765625 -3.375 C 13.546875 -3.675781 12.332031 -3.828125 11.125 -3.828125 C 8.9375 -3.828125 7.019531 -3.429688 5.375 -2.640625 C 3.738281 -1.847656 2.375 -0.96875 1.28125 0 L 7.65625 -51.046875 L 12.03125 -50.5 C 12.269531 -45.875 12.84375 -41.707031 13.75 -38 C 14.664062 -34.300781 16.160156 -31.050781 18.234375 -28.25 C 20.785156 -24.601562 23.578125 -21.65625 26.609375 -19.40625 C 29.648438 -17.164062 32.71875 -15.40625 35.8125 -14.125 C 38.914062 -12.851562 41.925781 -11.972656 44.84375 -11.484375 C 47.757812 -10.992188 50.375 -10.75 52.6875 -10.75 C 57.425781 -10.75 61.523438 -11.382812 64.984375 -12.65625 C 68.453125 -13.9375 71.367188 -15.609375 73.734375 -17.671875 C 76.109375 -19.742188 77.867188 -22.023438 79.015625 -24.515625 C 80.171875 -27.003906 80.75 -29.46875 80.75 -31.90625 C 80.75 -33.476562 80.472656 -34.875 79.921875 -36.09375 C 79.378906 -37.3125 78.46875 -38.4375 77.1875 -39.46875 C 75.914062 -40.5 74.1875 -41.5625 72 -42.65625 C 69.8125 -43.75 67.078125 -45.023438 63.796875 -46.484375 L 42.109375 -55.59375 C 39.429688 -56.6875 36.695312 -57.960938 33.90625 -59.421875 C 31.113281 -60.878906 28.5625 -62.703125 26.25 -64.890625 C 23.9375 -67.078125 22.019531 -69.71875 20.5 -72.8125 C 18.988281 -75.914062 18.234375 -79.65625 18.234375 -84.03125 Z M 18.234375 -84.03125 "/></g></g></g><g fill="#ffde59" fill-opacity="1"><g transform="translate(974.735993, 438.582968)"><g><path d="M 49.21875 -15.125 C 51.53125 -15.125 53.65625 -15.703125 55.59375 -16.859375 C 57.539062 -18.015625 59.273438 -19.535156 60.796875 -21.421875 C 62.316406 -23.304688 63.625 -25.429688 64.71875 -27.796875 C 65.8125 -30.171875 66.722656 -32.507812 67.453125 -34.8125 C 68.421875 -37.726562 69.207031 -40.367188 69.8125 -42.734375 C 70.425781 -45.109375 70.851562 -46.90625 71.09375 -48.125 C 65.863281 -47.757812 61.332031 -46.753906 57.5 -45.109375 C 53.675781 -43.472656 50.488281 -41.53125 47.9375 -39.28125 C 45.382812 -37.03125 43.46875 -34.628906 42.1875 -32.078125 C 40.914062 -29.523438 40.28125 -27.15625 40.28125 -24.96875 C 40.28125 -21.445312 41.28125 -18.925781 43.28125 -17.40625 C 45.289062 -15.882812 47.269531 -15.125 49.21875 -15.125 Z M 42.46875 -88.953125 C 44.65625 -89.441406 47.238281 -89.988281 50.21875 -90.59375 C 53.195312 -91.207031 56.203125 -91.726562 59.234375 -92.15625 C 62.273438 -92.582031 65.285156 -92.945312 68.265625 -93.25 C 71.242188 -93.550781 73.828125 -93.703125 76.015625 -93.703125 C 88.046875 -93.703125 96.765625 -92.0625 102.171875 -88.78125 C 107.585938 -85.5 110.296875 -80.941406 110.296875 -75.109375 C 110.296875 -74.492188 110.296875 -73.882812 110.296875 -73.28125 C 110.296875 -72.675781 110.203125 -71.828125 110.015625 -70.734375 C 109.835938 -69.640625 109.59375 -68.238281 109.28125 -66.53125 C 108.976562 -64.832031 108.523438 -62.585938 107.921875 -59.796875 L 104.28125 -42.84375 C 103.550781 -39.675781 103.03125 -37.117188 102.71875 -35.171875 C 102.414062 -33.234375 102.171875 -31.71875 101.984375 -30.625 C 101.804688 -29.53125 101.71875 -28.707031 101.71875 -28.15625 C 101.71875 -27.613281 101.71875 -27.160156 101.71875 -26.796875 C 101.71875 -24.847656 102.019531 -23.234375 102.625 -21.953125 C 103.238281 -20.679688 104.0625 -19.648438 105.09375 -18.859375 C 106.125 -18.078125 107.21875 -17.503906 108.375 -17.140625 C 109.53125 -16.773438 110.65625 -16.59375 111.75 -16.59375 C 112.238281 -16.59375 112.816406 -16.648438 113.484375 -16.765625 C 114.148438 -16.890625 115.148438 -17.253906 116.484375 -17.859375 L 118.5 -13.859375 L 88.953125 2.375 C 85.066406 2.007812 81.878906 1.398438 79.390625 0.546875 C 76.898438 -0.304688 74.832031 -1.398438 73.1875 -2.734375 C 71.550781 -4.066406 70.242188 -5.582031 69.265625 -7.28125 C 68.296875 -8.988281 67.507812 -10.753906 66.90625 -12.578125 C 62.28125 -7.960938 57.050781 -4.316406 51.21875 -1.640625 C 45.382812 1.035156 38.765625 2.375 31.359375 2.375 C 28.804688 2.375 25.914062 2.066406 22.6875 1.453125 C 19.46875 0.847656 16.488281 -0.238281 13.75 -1.8125 C 11.019531 -3.394531 8.710938 -5.523438 6.828125 -8.203125 C 4.953125 -10.878906 4.015625 -14.34375 4.015625 -18.59375 C 4.015625 -24.1875 5.347656 -29.015625 8.015625 -33.078125 C 10.691406 -37.148438 14.15625 -40.675781 18.40625 -43.65625 C 22.664062 -46.632812 27.40625 -49.066406 32.625 -50.953125 C 37.851562 -52.835938 43.050781 -54.351562 48.21875 -55.5 C 53.382812 -56.65625 58.15625 -57.566406 62.53125 -58.234375 C 66.90625 -58.910156 70.425781 -59.429688 73.09375 -59.796875 C 73.457031 -61.617188 73.726562 -63.078125 73.90625 -64.171875 C 74.09375 -65.265625 74.21875 -66.144531 74.28125 -66.8125 C 74.34375 -67.476562 74.40625 -67.992188 74.46875 -68.359375 C 74.53125 -68.722656 74.5625 -69.085938 74.5625 -69.453125 C 74.5625 -76.253906 69.941406 -79.65625 60.703125 -79.65625 C 55.359375 -79.65625 50.585938 -78.863281 46.390625 -77.28125 C 42.203125 -75.707031 38.554688 -73.765625 35.453125 -71.453125 C 32.359375 -69.148438 29.71875 -66.691406 27.53125 -64.078125 C 25.34375 -61.460938 23.578125 -59.0625 22.234375 -56.875 L 19.140625 -57.78125 L 28.796875 -92.0625 C 29.773438 -90.726562 30.71875 -89.722656 31.625 -89.046875 C 32.539062 -88.378906 33.847656 -88.046875 35.546875 -88.046875 C 36.765625 -88.046875 37.976562 -88.132812 39.1875 -88.3125 C 40.40625 -88.5 41.5 -88.710938 42.46875 -88.953125 Z M 42.46875 -88.953125 "/></g></g></g><g fill="#ffde59" fill-opacity="1"><g transform="translate(1095.418373, 438.582968)"><g><path d="M 47.390625 -43.75 C 46.660156 -40.46875 46.144531 -37.820312 45.84375 -35.8125 C 45.539062 -33.8125 45.296875 -32.234375 45.109375 -31.078125 C 44.929688 -29.921875 44.84375 -29.097656 44.84375 -28.609375 C 44.84375 -28.128906 44.84375 -27.769531 44.84375 -27.53125 C 44.84375 -24.25 45.785156 -21.753906 47.671875 -20.046875 C 49.554688 -18.347656 51.710938 -17.5 54.140625 -17.5 C 54.378906 -17.5 55.046875 -17.554688 56.140625 -17.671875 C 57.234375 -17.796875 58.875 -18.222656 61.0625 -18.953125 L 62.703125 -14.953125 L 30.984375 2.921875 C 15.921875 0.734375 8.390625 -6.132812 8.390625 -17.6875 C 8.390625 -18.65625 8.507812 -19.867188 8.75 -21.328125 C 8.988281 -22.785156 9.472656 -25.273438 10.203125 -28.796875 L 25.15625 -100.078125 C 26.007812 -103.609375 26.4375 -106.160156 26.4375 -107.734375 C 26.4375 -110.046875 25.734375 -111.988281 24.328125 -113.5625 C 22.929688 -115.144531 20.59375 -116.0625 17.3125 -116.3125 L 17.5 -120.3125 L 65.078125 -126.328125 Z M 47.390625 -43.75 "/></g></g></g><g fill="#ffde59" fill-opacity="1"><g transform="translate(1159.040995, 438.582968)"><g><path d="M 68.359375 -79.296875 C 64.710938 -79.054688 61.460938 -77.445312 58.609375 -74.46875 C 55.753906 -71.488281 53.351562 -67.78125 51.40625 -63.34375 C 49.457031 -58.90625 47.96875 -53.984375 46.9375 -48.578125 C 45.90625 -43.171875 45.390625 -37.976562 45.390625 -33 C 45.390625 -28.257812 45.9375 -24.488281 47.03125 -21.6875 C 48.125 -18.894531 49.398438 -16.738281 50.859375 -15.21875 C 52.316406 -13.695312 53.832031 -12.691406 55.40625 -12.203125 C 56.988281 -11.722656 58.269531 -11.484375 59.25 -11.484375 C 63.5 -11.484375 67.171875 -13.15625 70.265625 -16.5 C 73.367188 -19.84375 75.921875 -23.882812 77.921875 -28.625 C 79.929688 -33.363281 81.390625 -38.375 82.296875 -43.65625 C 83.210938 -48.945312 83.671875 -53.597656 83.671875 -57.609375 C 83.671875 -59.429688 83.457031 -61.617188 83.03125 -64.171875 C 82.601562 -66.722656 81.84375 -69.148438 80.75 -71.453125 C 79.65625 -73.765625 78.101562 -75.679688 76.09375 -77.203125 C 74.09375 -78.722656 71.515625 -79.421875 68.359375 -79.296875 Z M 7.296875 -39.5625 C 7.296875 -45.507812 8.539062 -51.671875 11.03125 -58.046875 C 13.519531 -64.429688 17.347656 -70.238281 22.515625 -75.46875 C 27.679688 -80.695312 34.242188 -85.007812 42.203125 -88.40625 C 50.160156 -91.8125 59.609375 -93.515625 70.546875 -93.515625 C 76.984375 -93.515625 83.269531 -92.660156 89.40625 -90.953125 C 95.550781 -89.253906 100.992188 -86.671875 105.734375 -83.203125 C 110.472656 -79.742188 114.300781 -75.34375 117.21875 -70 C 120.132812 -64.65625 121.59375 -58.335938 121.59375 -51.046875 C 121.59375 -45.691406 120.46875 -39.914062 118.21875 -33.71875 C 115.96875 -27.519531 112.320312 -21.75 107.28125 -16.40625 C 102.238281 -11.0625 95.707031 -6.59375 87.6875 -3 C 79.664062 0.582031 69.941406 2.375 58.515625 2.375 C 48.429688 2.375 40.109375 1.066406 33.546875 -1.546875 C 26.984375 -4.160156 21.753906 -7.53125 17.859375 -11.65625 C 13.972656 -15.789062 11.238281 -20.316406 9.65625 -25.234375 C 8.082031 -30.160156 7.296875 -34.9375 7.296875 -39.5625 Z M 7.296875 -39.5625 "/></g></g></g><g fill="#ffde59" fill-opacity="1"><g transform="translate(1284.645525, 438.582968)"><g><path d="M 51.40625 -93.515625 C 52.5 -92.421875 53.285156 -91.113281 53.765625 -89.59375 C 54.253906 -88.070312 54.585938 -86.429688 54.765625 -84.671875 C 54.953125 -82.910156 54.984375 -81.085938 54.859375 -79.203125 C 54.742188 -77.316406 54.625 -75.585938 54.5 -74.015625 C 61.789062 -80.578125 69.203125 -85.46875 76.734375 -88.6875 C 84.273438 -91.90625 91.691406 -93.515625 98.984375 -93.515625 C 104.941406 -93.515625 109.617188 -92.054688 113.015625 -89.140625 C 116.421875 -86.222656 118.125 -82.273438 118.125 -77.296875 C 118.125 -74.378906 117.789062 -71.125 117.125 -67.53125 C 116.457031 -63.945312 115.878906 -61.003906 115.390625 -58.703125 L 111.203125 -39.015625 C 110.597656 -36.097656 110.140625 -33.816406 109.828125 -32.171875 C 109.523438 -30.535156 109.28125 -29.257812 109.09375 -28.34375 C 108.914062 -27.4375 108.828125 -26.800781 108.828125 -26.4375 C 108.828125 -26.070312 108.828125 -25.765625 108.828125 -25.515625 C 108.828125 -23.210938 109.585938 -21.085938 111.109375 -19.140625 C 112.628906 -17.191406 114.910156 -16.21875 117.953125 -16.21875 C 118.554688 -16.21875 119.28125 -16.28125 120.125 -16.40625 C 120.976562 -16.53125 122.257812 -16.773438 123.96875 -17.140625 L 125.609375 -13.125 L 92.25 2.375 C 89.445312 1.882812 86.859375 1.148438 84.484375 0.171875 C 82.117188 -0.796875 80.023438 -2.066406 78.203125 -3.640625 C 76.378906 -5.222656 74.953125 -7.195312 73.921875 -9.5625 C 72.890625 -11.9375 72.375 -14.765625 72.375 -18.046875 C 72.375 -20.359375 72.613281 -22.757812 73.09375 -25.25 C 73.582031 -27.738281 74.375 -31.472656 75.46875 -36.453125 L 80.203125 -58.328125 C 80.816406 -61.367188 81.242188 -63.675781 81.484375 -65.25 C 81.722656 -66.832031 81.84375 -67.75 81.84375 -68 C 81.84375 -72.007812 79.414062 -74.015625 74.5625 -74.015625 C 71.15625 -74.015625 68.144531 -73.191406 65.53125 -71.546875 C 62.914062 -69.910156 60.632812 -67.816406 58.6875 -65.265625 C 56.75 -62.710938 55.082031 -59.820312 53.6875 -56.59375 C 52.289062 -53.375 51.101562 -50.15625 50.125 -46.9375 C 49.15625 -43.71875 48.335938 -40.648438 47.671875 -37.734375 C 47.003906 -34.816406 46.488281 -32.382812 46.125 -30.4375 L 39.734375 0 L 5.46875 0 L 18.59375 -61.796875 C 19.082031 -64.222656 19.507812 -66.164062 19.875 -67.625 C 20.238281 -69.082031 20.476562 -70.265625 20.59375 -71.171875 C 20.71875 -72.085938 20.8125 -72.816406 20.875 -73.359375 C 20.9375 -73.910156 20.96875 -74.492188 20.96875 -75.109375 C 20.96875 -78.390625 19.929688 -80.695312 17.859375 -82.03125 C 17.492188 -82.269531 16.828125 -82.601562 15.859375 -83.03125 C 14.890625 -83.457031 13.25 -83.734375 10.9375 -83.859375 L 10.578125 -88.046875 Z M 51.40625 -93.515625 "/></g></g></g></svg>